<svg xmlns="http://www.w3.org/2000/svg" viewBox="0 0 24 24" fill="white">
  <path d="M12 .296a12 12 0 00-3.79 23.4c.6.112.82-.26.82-.577v-2.234c-3.338.726-4.04-1.416-4.04-1.416-.546-1.386-1.332-1.756-1.332-1.756-1.088-.744.084-.729.084-.729 1.204.084 1.836 1.236 1.836 1.236 1.07 1.835 2.808 1.305 3.492.997.108-.775.42-1.305.762-1.605-2.666-.304-5.467-1.335-5.467-5.932 0-1.311.468-2.382 1.236-3.222-.124-.303-.536-1.524.116-3.176 0 0 1.008-.322 3.3 1.23a11.52 11.52 0 013.004-.404c1.02.005 2.048.137 3.004.403 2.292-1.552 3.298-1.23 3.298-1.23.653 1.652.24 2.873.118 3.176.77.84 1.236 1.911 1.236 3.222 0 4.61-2.804 5.625-5.475 5.922.432.373.816 1.102.816 2.222v3.293c0 .32.216.694.825.576A12 12 0 0012 .296"/>
</svg>
