<svg xmlns="http://www.w3.org/2000/svg" viewBox="0 0 551.034 551.034" width="100" height="100">
  <linearGradient id="IGGradient" x1="0%" y1="0%" x2="100%" y2="100%">
    <stop offset="0%" stop-color="#feda75"/>
    <stop offset="25%" stop-color="#fa7e1e"/>
    <stop offset="50%" stop-color="#d62976"/>
    <stop offset="75%" stop-color="#962fbf"/>
    <stop offset="100%" stop-color="#4f5bd5"/>
  </linearGradient>
  <path fill="url(#IGGradient)" d="M386.878,0H164.156C73.461,0,0,73.461,0,164.156v222.722
    c0,90.695,73.461,164.156,164.156,164.156h222.722c90.695,0,164.156-73.461,164.156-164.156V164.156
    C551.034,73.461,477.573,0,386.878,0z M499.034,386.878c0,61.926-50.229,112.156-112.156,112.156H164.156
    c-61.926,0-112.156-50.229-112.156-112.156V164.156c0-61.926,50.229-112.156,112.156-112.156h222.722
    c61.926,0,112.156,50.229,112.156,112.156V386.878z"/>
  <path fill="url(#IGGradient)" d="M275.517,133.1c-78.546,0-142.417,63.872-142.417,142.417s63.872,142.417,142.417,142.417
    s142.417-63.872,142.417-142.417S354.063,133.1,275.517,133.1z M275.517,362.934c-48.292,0-87.417-39.125-87.417-87.417
    s39.125-87.417,87.417-87.417s87.417,39.125,87.417,87.417S323.809,362.934,275.517,362.934z"/>
  <circle fill="url(#IGGradient)" cx="418.31" cy="134.07" r="34.15"/>
</svg>
