<svg xmlns="http://www.w3.org/2000/svg" viewBox="0 0 24 24" fill="white">
  <path d="M12 2.163c3.204 0 3.584.012 4.85.07 1.206.058 2.003.248 2.466.415a4.918 4.918 0 011.675 1.089 4.918 4.918 0 011.089 1.675c.167.463.357 1.26.415 2.466.058 1.266.07 1.646.07 4.85s-.012 3.584-.07 4.85c-.058 1.206-.248 2.003-.415 2.466a4.918 4.918 0 01-1.089 1.675 4.918 4.918 0 01-1.675 1.089c-.463.167-1.26.357-2.466.415-1.266.058-1.646.07-4.85.07s-3.584-.012-4.85-.07c-1.206-.058-2.003-.248-2.466-.415a4.918 4.918 0 01-1.675-1.089 4.918 4.918 0 01-1.089-1.675c-.167-.463-.357-1.26-.415-2.466C2.175 15.747 2.163 15.367 2.163 12s.012-3.584.07-4.85c.058-1.206.248-2.003.415-2.466a4.918 4.918 0 011.089-1.675 4.918 4.918 0 011.675-1.089c.463-.167 1.26-.357 2.466-.415C8.416 2.175 8.796 2.163 12 2.163zm0-2.163C8.741 0 8.332.012 7.052.07 5.77.128 4.764.308 3.965.528a7.047 7.047 0 00-2.558 1.61A7.047 7.047 0 00.528 4.696C.308 5.495.128 6.5.07 7.783.012 9.063 0 9.471 0 12c0 2.529.012 2.937.07 4.217.058 1.283.238 2.288.458 3.087a7.047 7.047 0 001.61 2.558 7.047 7.047 0 002.558 1.61c.799.22 1.804.4 3.087.458C8.332 23.988 8.741 24 12 24s3.668-.012 4.948-.07c1.283-.058 2.288-.238 3.087-.458a7.047 7.047 0 002.558-1.61 7.047 7.047 0 001.61-2.558c.22-.799.4-1.804.458-3.087.058-1.28.07-1.688.07-4.217s-.012-2.937-.07-4.217c-.058-1.283-.238-2.288-.458-3.087a7.047 7.047 0 00-1.61-2.558A7.047 7.047 0 0019.304.528c-.799-.22-1.804-.4-3.087-.458C15.668.012 15.259 0 12 0z"/>
</svg>
