<svg xmlns="http://www.w3.org/2000/svg" viewBox="0 0 24 24" fill="white">
  <path d="M20.447 20.452H17.2v-5.56c0-1.328-.027-3.04-1.85-3.04-1.853 0-2.136 1.446-2.136 2.938v5.662H9.064V9h3.11v1.56h.045c.433-.82 1.49-1.684 3.068-1.684 3.28 0 3.885 2.16 3.885 4.974v6.602zM5.337 7.433a1.8 1.8 0 110-3.601 1.8 1.8 0 010 3.6zM6.765 20.452H3.91V9h2.854v11.452zM22.225 0H1.771C.792 0 0 .774 0 1.73v20.535C0 23.226.792 24 1.771 24h20.451C23.207 24 24 23.226 24 22.265V1.73C24 .774 23.207 0 22.225 0z"/>
</svg>
