<svg xmlns="http://www.w3.org/2000/svg" viewBox="0 0 24 24" fill="white">
  <path d="M23.954 4.569c-.885.389-1.83.654-2.825.775a4.932 4.932 0 002.163-2.723c-.951.555-2.005.959-3.127 1.184a4.92 4.92 0 00-8.384 4.482C7.69 8.094 4.066 6.13 1.64 3.161a4.822 4.822 0 00-.666 2.475c0 1.71.87 3.213 2.188 4.096a4.904 4.904 0 01-2.228-.616c-.053 1.988 1.393 3.848 3.449 4.263a4.935 4.935 0 01-2.224.084c.626 1.956 2.444 3.377 4.6 3.418a9.867 9.867 0 01-6.102 2.105c-.396 0-.79-.023-1.17-.067a13.945 13.945 0 007.548 2.212c9.055 0 14-7.496 14-13.986 0-.21-.004-.423-.014-.633a9.936 9.936 0 002.46-2.548l-.047-.02z"/>
</svg>
